<svg width="824" height="497" viewBox="0 0 824 497" fill="none" xmlns="http://www.w3.org/2000/svg">
<path d="M-345.867 504.297C-304.339 403.324 -183.898 357.867 -76.8332 402.753L658.482 704.672L1065.44 869.621C1172.51 914.507 1292.95 869.049 1334.47 768.076C1376 667.104 1322.89 548.881 1215.82 503.995C1180.35 489.133 1143.42 484.172 1108.37 487.869L850.773 515.054C815.724 518.752 778.777 513.801 743.326 498.928C636.26 454.042 583.142 335.819 624.67 234.847C666.198 133.874 786.639 88.4163 893.705 133.302L2249.92 685.288" stroke="#1D3155" stroke-width="231.59" stroke-miterlimit="10"/>
<path d="M-1142 637.734L94.9036 1139.07M-345.865 504.297C-304.337 403.325 -183.896 357.867 -76.8311 402.753L658.484 704.673L1065.44 869.621C1172.51 914.507 1292.95 869.049 1334.48 768.077C1376 667.104 1322.89 548.881 1215.82 503.995C1180.35 489.133 1143.42 484.172 1108.37 487.869L850.775 515.055C815.726 518.752 778.779 513.801 743.328 498.928C636.262 454.043 583.144 335.819 624.672 234.847C666.2 133.874 786.641 88.4163 893.707 133.302L2222.82 676.356" stroke="#2C4068" stroke-width="5.34481" stroke-miterlimit="10"/>
</svg>
