<svg width="20" height="24" viewBox="0 0 20 24" fill="none" xmlns="http://www.w3.org/2000/svg">
<path d="M9.99858 0.0410156C7.35252 0.0439267 4.81565 1.09629 2.94451 2.96724C1.07337 4.8382 0.0207543 7.37496 0.0175781 10.021C0.0175781 12.591 2.00758 16.613 5.93258 21.975C6.39984 22.6151 7.01163 23.1359 7.71818 23.4949C8.42472 23.8539 9.20605 24.0411 9.99858 24.0411C10.7911 24.0411 11.5724 23.8539 12.279 23.4949C12.9855 23.1359 13.5973 22.6151 14.0646 21.975C17.9896 16.613 19.9796 12.591 19.9796 10.021C19.9764 7.37496 18.9238 4.8382 17.0526 2.96724C15.1815 1.09629 12.6446 0.0439267 9.99858 0.0410156ZM9.99858 13.999C9.20745 13.999 8.43409 13.7644 7.7763 13.3249C7.1185 12.8854 6.60581 12.2607 6.30306 11.5298C6.00031 10.7988 5.9211 9.99458 6.07544 9.21866C6.22978 8.44273 6.61074 7.73 7.17015 7.17059C7.72956 6.61118 8.44229 6.23022 9.21822 6.07588C9.99414 5.92153 10.7984 6.00075 11.5293 6.3035C12.2602 6.60625 12.8849 7.11894 13.3245 7.77674C13.764 8.43453 13.9986 9.20789 13.9986 9.99902C13.9986 11.0599 13.5772 12.0773 12.827 12.8274C12.0769 13.5776 11.0594 13.999 9.99858 13.999Z" fill="#79C65B"/>
</svg>
