<svg width="20" height="20" viewBox="0 0 20 20" fill="none" xmlns="http://www.w3.org/2000/svg">
<path d="M19.9914 6.17003L18.813 4.9917L15.7889 8.01587C15.2489 7.73753 14.7339 7.53587 14.3764 7.53587C14.068 7.53587 13.7722 7.59837 13.4864 7.6917L19.9639 1.2142L18.7855 0.0358659L12.308 6.51337C12.4014 6.22837 12.4639 5.9317 12.4639 5.62337C12.4639 5.26087 12.2564 4.7367 11.973 4.1892L14.9922 1.17003L13.813 -0.00830078L11.0897 2.71503C10.7014 2.1292 10.3805 1.7017 10.3805 1.7017C10.3805 1.7017 8.2972 4.4717 8.2972 5.62253C8.2972 6.52837 9.3272 8.3267 9.7672 9.05337L8.14137 10.6792C8.2347 10.3942 8.2972 10.0975 8.2972 9.7892C8.2972 8.63837 6.21387 5.86837 6.21387 5.86837C6.21387 5.86837 4.13053 8.63837 4.13053 9.7892C4.13053 10.695 5.16053 12.4934 5.60053 13.22L3.9747 14.8459C4.06803 14.5609 4.13053 14.2642 4.13053 13.9559C4.13053 12.805 2.0472 10.035 2.0472 10.035C2.0472 10.035 -0.0361328 12.8059 -0.0361328 13.9567C-0.0361328 14.8625 0.993867 16.6609 1.43387 17.3875L-0.000299476 18.8217L1.17803 20L2.6122 18.5659C3.33887 19.0059 5.1372 20.0359 6.04303 20.0359C7.19387 20.0359 9.96387 17.9525 9.96387 17.9525C9.96387 17.9525 7.19387 15.8692 6.04303 15.8692C5.7347 15.8692 5.43887 15.9317 5.15303 16.025L6.77887 14.3992C7.50553 14.8392 9.30387 15.8692 10.2097 15.8692C11.3605 15.8692 14.1305 13.7859 14.1305 13.7859C14.1305 13.7859 11.3605 11.7025 10.2097 11.7025C9.90137 11.7025 9.60553 11.765 9.3197 11.8584L10.9455 10.2325C11.6722 10.6725 13.4705 11.7025 14.3764 11.7025C15.5272 11.7025 18.2972 9.6192 18.2972 9.6192C18.2972 9.6192 17.8605 9.2917 17.2647 8.89753L19.9914 6.17087V6.17003Z" fill="white"/>
</svg>
