<svg width="20" height="20" viewBox="0 0 20 20" fill="none" xmlns="http://www.w3.org/2000/svg">
<path d="M1.32727 6.2502C0.989613 6.47855 0.789062 6.8482 0.789062 7.24223V17.7725C0.789062 18.7809 1.64868 19.5984 2.70906 19.5984H6.38867C6.94096 19.5984 7.38867 19.1507 7.38867 18.5984V12.2949C7.38867 11.6226 7.96175 11.0776 8.66867 11.0776H12.1087C12.8156 11.0776 13.3887 11.6226 13.3887 12.2949V18.5984C13.3887 19.1507 13.8364 19.5984 14.3887 19.5984H18.0691C19.1294 19.5984 19.9891 18.7809 19.9891 17.7725V7.24223C19.9891 6.8482 19.7885 6.47855 19.4509 6.2502L11.1309 0.623688C10.6867 0.323354 10.0914 0.323354 9.64727 0.623687L1.32727 6.2502Z" fill="white"/>
</svg>
