<svg width="40" height="32" viewBox="0 0 40 32" fill="none" xmlns="http://www.w3.org/2000/svg">
<path d="M0 23.7804C0 22.4418 0.773856 20.183 2.32157 17.0039L10.7922 0H17.6314L11.4824 16.1882C13.0301 16.732 14.2431 17.715 15.1216 19.1373C16.0418 20.5176 16.502 22.0654 16.502 23.7804C16.502 26.081 15.7072 28.0261 14.1176 29.6157C12.5281 31.2052 10.5621 32 8.21961 32C5.91895 32 3.97386 31.2261 2.38431 29.6784C0.794771 28.0889 0 26.1229 0 23.7804ZM22.2745 23.7804C22.2745 22.4418 23.0484 20.183 24.5961 17.0039L33.0667 0H39.8431L33.8196 16.1882C35.2837 16.7739 36.4549 17.7569 37.3333 19.1373C38.2536 20.5176 38.7137 22.0654 38.7137 23.7804C38.7137 26.1229 37.9399 28.0889 36.3922 29.6784C34.8444 31.2261 32.8784 32 30.4941 32C28.1516 32 26.1856 31.2261 24.5961 29.6784C23.0484 28.0889 22.2745 26.1229 22.2745 23.7804Z" fill="white"/>
</svg>
